<svg width="6" height="10" viewBox="0 0 6 10" fill="none" xmlns="http://www.w3.org/2000/svg">
<path d="M5.14385 4.26511L1.13875 0.147809C1.04611 0.0525043 0.922455 0 0.790602 0C0.65875 0 0.535093 0.0525043 0.442459 0.147809L0.147511 0.45095C-0.0444142 0.64848 -0.0444142 0.969523 0.147511 1.16675L3.5107 4.62421L0.143779 8.08551C0.0511459 8.18081 0 8.30786 0 8.44333C0 8.57896 0.0511459 8.706 0.143779 8.80138L0.438728 9.10445C0.531434 9.19975 0.655018 9.25226 0.786871 9.25226C0.918723 9.25226 1.04238 9.19975 1.13501 9.10445L5.14385 4.98339C5.23671 4.88779 5.28771 4.76014 5.28741 4.62444C5.28771 4.48821 5.23671 4.36064 5.14385 4.26511Z" fill="#fff"/>
</svg>
