<svg width="18" height="17" viewBox="0 0 18 17" fill="none" xmlns="http://www.w3.org/2000/svg">
<path d="M8.8506 5.38909C7.29388 5.38909 6.02349 6.60069 6.02349 8.08536C6.02349 9.57002 7.29388 10.7816 8.8506 10.7816C10.4073 10.7816 11.6777 9.57002 11.6777 8.08536C11.6777 6.60069 10.4073 5.38909 8.8506 5.38909ZM17.3298 8.08536C17.3298 6.96882 17.3404 5.8624 17.2747 4.74789C17.2089 3.45336 16.8993 2.30446 15.9067 1.35784C14.912 0.409188 13.7095 0.115896 12.3521 0.053192C11.1814 -0.00951192 10.0213 0.000601642 8.85272 0.000601642C7.682 0.000601642 6.52189 -0.00951192 5.35329 0.053192C3.99594 0.115896 2.79129 0.411211 1.79873 1.35784C0.804045 2.30649 0.49652 3.45336 0.430773 4.74789C0.365026 5.86443 0.375631 6.97085 0.375631 8.08536C0.375631 9.19987 0.365026 10.3083 0.430773 11.4228C0.49652 12.7174 0.806166 13.8663 1.79873 14.8129C2.79341 15.7615 3.99594 16.0548 5.35329 16.1175C6.52401 16.1802 7.68412 16.1701 8.85272 16.1701C10.0234 16.1701 11.1835 16.1802 12.3521 16.1175C13.7095 16.0548 14.9141 15.7595 15.9067 14.8129C16.9014 13.8642 17.2089 12.7174 17.2747 11.4228C17.3425 10.3083 17.3298 9.20189 17.3298 8.08536ZM8.8506 12.2339C6.44342 12.2339 4.50071 10.3811 4.50071 8.08536C4.50071 5.78959 6.44342 3.93679 8.8506 3.93679C11.2578 3.93679 13.2005 5.78959 13.2005 8.08536C13.2005 10.3811 11.2578 12.2339 8.8506 12.2339ZM13.3786 4.73576C12.8166 4.73576 12.3627 4.3029 12.3627 3.76688C12.3627 3.23086 12.8166 2.798 13.3786 2.798C13.9407 2.798 14.3945 3.23086 14.3945 3.76688C14.3947 3.89416 14.3685 4.02022 14.3175 4.13784C14.2665 4.25546 14.1917 4.36234 14.0974 4.45234C14.003 4.54234 13.8909 4.6137 13.7676 4.66233C13.6443 4.71096 13.5121 4.73592 13.3786 4.73576Z" fill="#201A1A"/>
</svg>
