<svg width="36" height="48" viewBox="0 0 36 48" fill="none" xmlns="http://www.w3.org/2000/svg">
<path d="M2.25 48H33.75C34.9905 48 36 46.9905 36 45.75V14.25C36 14.2245 35.988 14.2035 35.9865 14.1795C35.9835 14.145 35.9745 14.115 35.967 14.082C35.9434 13.9778 35.8974 13.88 35.832 13.7955C35.8215 13.782 35.823 13.7655 35.8125 13.752L23.8125 0.252C23.808 0.2475 23.802 0.2475 23.7975 0.243C23.706 0.147316 23.5905 0.0779085 23.463 0.042C23.4345 0.033 23.409 0.03 23.379 0.0255C23.3355 0.018 23.295 0 23.25 0H2.25C1.0095 0 0 1.0095 0 2.25V45.75C0 46.9905 1.0095 48 2.25 48ZM24 2.7225L33.5805 13.5H24.75C24.42 13.5 24 12.87 24 12.375V2.7225ZM1.5 2.25C1.5 2.05109 1.57902 1.86032 1.71967 1.71967C1.86032 1.57902 2.05109 1.5 2.25 1.5H22.5V12.375C22.5 13.5885 23.4825 15 24.75 15H34.5V45.75C34.5 45.9489 34.421 46.1397 34.2803 46.2803C34.1397 46.421 33.9489 46.5 33.75 46.5H2.25C1.83 46.5 1.5 46.17 1.5 45.75V2.25Z" fill="#BE9470"/>
<path d="M8.25002 21H27.75C27.9489 21 28.1397 20.921 28.2804 20.7803C28.421 20.6397 28.5 20.4489 28.5 20.25C28.5 20.0511 28.421 19.8603 28.2804 19.7197C28.1397 19.579 27.9489 19.5 27.75 19.5H8.25002C8.05111 19.5 7.86035 19.579 7.71969 19.7197C7.57904 19.8603 7.50002 20.0511 7.50002 20.25C7.50002 20.4489 7.57904 20.6397 7.71969 20.7803C7.86035 20.921 8.05111 21 8.25002 21Z" fill="#BE9470"/>
<path d="M8.25002 27H27.75C27.9489 27 28.1397 26.921 28.2804 26.7803C28.421 26.6397 28.5 26.4489 28.5 26.25C28.5 26.0511 28.421 25.8603 28.2804 25.7197C28.1397 25.579 27.9489 25.5 27.75 25.5H8.25002C8.05111 25.5 7.86035 25.579 7.71969 25.7197C7.57904 25.8603 7.50002 26.0511 7.50002 26.25C7.50002 26.4489 7.57904 26.6397 7.71969 26.7803C7.86035 26.921 8.05111 27 8.25002 27Z" fill="#BE9470"/>
<path d="M8.25002 15H17.25C17.4489 15 17.6397 14.921 17.7804 14.7803C17.921 14.6397 18 14.4489 18 14.25C18 14.0511 17.921 13.8603 17.7804 13.7197C17.6397 13.579 17.4489 13.5 17.25 13.5H8.25002C8.05111 13.5 7.86035 13.579 7.71969 13.7197C7.57904 13.8603 7.50002 14.0511 7.50002 14.25C7.50002 14.4489 7.57904 14.6397 7.71969 14.7803C7.86035 14.921 8.05111 15 8.25002 15Z" fill="#BE9470"/>
<path d="M8.25002 33H27.75C27.9489 33 28.1397 32.921 28.2804 32.7803C28.421 32.6397 28.5 32.4489 28.5 32.25C28.5 32.0511 28.421 31.8603 28.2804 31.7197C28.1397 31.579 27.9489 31.5 27.75 31.5H8.25002C8.05111 31.5 7.86035 31.579 7.71969 31.7197C7.57904 31.8603 7.50002 32.0511 7.50002 32.25C7.50002 32.4489 7.57904 32.6397 7.71969 32.7803C7.86035 32.921 8.05111 33 8.25002 33Z" fill="#BE9470"/>
<path d="M8.25002 39H27.75C27.9489 39 28.1397 38.921 28.2804 38.7803C28.421 38.6397 28.5 38.4489 28.5 38.25C28.5 38.0511 28.421 37.8603 28.2804 37.7197C28.1397 37.579 27.9489 37.5 27.75 37.5H8.25002C8.05111 37.5 7.86035 37.579 7.71969 37.7197C7.57904 37.8603 7.50002 38.0511 7.50002 38.25C7.50002 38.4489 7.57904 38.6397 7.71969 38.7803C7.86035 38.921 8.05111 39 8.25002 39Z" fill="#BE9470"/>
</svg>
