<svg width="13" height="14" viewBox="0 0 13 14" fill="none" xmlns="http://www.w3.org/2000/svg">
<path d="M11.0627 12.8999H1.84283C1.74878 12.8999 1.65859 12.9328 1.59208 12.9914C1.52558 13.05 1.48822 13.1294 1.48822 13.2123C1.48822 13.2951 1.52558 13.3746 1.59208 13.4332C1.65859 13.4917 1.74878 13.5247 1.84283 13.5247H11.0627C11.1568 13.5247 11.247 13.4917 11.3135 13.4332C11.38 13.3746 11.4174 13.2951 11.4174 13.2123C11.4174 13.1294 11.38 13.05 11.3135 12.9914C11.247 12.9328 11.1568 12.8999 11.0627 12.8999Z" fill="#3D3A39"/>
<path d="M6.39666 12.5692L12.2444 7.3353C12.3347 7.24093 12.3818 7.11954 12.3765 6.99539C12.3711 6.87124 12.3136 6.75347 12.2155 6.66562C12.1173 6.57776 11.9857 6.5263 11.847 6.5215C11.7083 6.51671 11.5727 6.55893 11.4672 6.63975L6.94781 10.6798V0.493295C6.94781 0.362465 6.88974 0.236994 6.78638 0.144483C6.68302 0.0519721 6.54283 0 6.39666 0C6.25049 0 6.1103 0.0519721 6.00694 0.144483C5.90358 0.236994 5.84551 0.362465 5.84551 0.493295V10.6798L1.33159 6.63975C1.28218 6.58811 1.22138 6.54617 1.153 6.51656C1.08462 6.48695 1.01014 6.47031 0.934239 6.46769C0.858335 6.46506 0.782645 6.47651 0.711919 6.50131C0.641192 6.52611 0.576957 6.56373 0.523245 6.6118C0.469532 6.65988 0.427503 6.71737 0.399794 6.78067C0.372085 6.84397 0.359295 6.91172 0.362227 6.97966C0.365159 7.04759 0.383749 7.11425 0.416831 7.17545C0.449913 7.23665 0.496772 7.29107 0.554468 7.3353L6.39666 12.5692Z" fill="#3D3A39"/>
</svg>
